1.9Hzhigh3min_grf.mot
version=1
nRows=25
nColumns 19
inDegrees=yes
endheader
time	1_ground_force_vx	1_ground_force_vy	1_ground_force_vz	1_ground_force_px	1_ground_force_py	1_ground_force_pz	1_ground_torque_x	1_ground_torque_y	1_ground_torque_z	2_ground_force_vx	2_ground_force_vy	2_ground_force_vz	2_ground_force_px	2_ground_force_py	2_ground_force_pz	2_ground_torque_x	2_ground_torque_y	2_ground_torque_z
            2.502500	            0.640961	            5.227632	            0.066679	           -0.233013	            0.005581	           -0.255695	            0.464685	           -0.130068	            0.269844	            0.036723	            2.584940	           -1.867945	           -0.232311	            0.006130	           -0.833667	           -0.431667	           -0.142409	           -0.264225
            2.503000	            0.457754	            4.326268	            0.063269	           -0.233013	            0.005581	           -0.255695	            0.521511	           -0.111574	            0.243198	            0.040628	            1.480720	           -2.059600	           -0.232311	            0.006130	           -0.833667	           -0.450171	           -0.218166	           -0.245637
            2.503500	            0.824381	            5.588002	            0.113626	           -0.233013	            0.005581	           -0.255695	            0.462290	           -0.166553	            0.183509	            0.181301	            1.480223	           -1.778091	           -0.232311	            0.006130	           -0.833667	           -0.488031	           -0.142546	           -0.283051
            2.504000	            0.686819	            5.768241	            0.114740	           -0.233013	            0.005581	           -0.255695	            0.575024	           -0.157754	            0.271387	            0.182048	            1.295405	           -1.591036	           -0.232311	            0.006130	           -0.833667	           -0.469289	           -0.123774	           -0.226441
            2.504500	            0.595361	            5.767830	            0.206679	           -0.233013	            0.005581	           -0.255695	            0.571019	           -0.203850	            0.229694	            0.082202	            2.953741	           -1.960507	           -0.232311	            0.006130	           -0.833667	           -0.506554	           -0.199800	           -0.151294
            2.505000	            0.550267	            5.406110	            0.480383	           -0.233013	            0.005581	           -0.255695	            0.559739	           -0.158049	            0.321967	            0.131772	            2.216815	           -1.822371	           -0.232311	            0.006130	           -0.833667	           -0.450410	           -0.151997	           -0.245401
            2.505500	            0.641123	            5.587770	            0.159937	           -0.233013	            0.005581	           -0.255695	            0.498318	           -0.121218	            0.363776	            0.226096	            2.033340	           -1.916924	           -0.232311	            0.006130	           -0.833667	           -0.487844	           -0.189943	           -0.245519
            2.506000	            0.457946	            5.767607	            0.252877	           -0.233013	            0.005581	           -0.255695	            0.512716	           -0.111489	            0.224370	            0.222026	            3.138899	           -2.100694	           -0.232311	            0.006130	           -0.833667	           -0.450470	           -0.133159	           -0.226483
            2.506500	            0.824267	            5.588199	            0.067770	           -0.233013	            0.005581	           -0.255695	            0.483111	           -0.166712	            0.221053	            0.086916	            1.664201	           -1.824322	           -0.232311	            0.006130	           -0.833667	           -0.431599	           -0.161315	           -0.264292
            2.507000	            0.594402	            5.409068	           -0.207570	           -0.233013	            0.005581	           -0.255695	            0.551347	           -0.185462	            0.248632	           -0.008195	            2.032828	           -2.010681	           -0.232311	            0.006130	           -0.833667	           -0.469068	           -0.180625	           -0.188943
            2.507500	            0.274559	            5.226971	            0.205157	           -0.233013	            0.005581	           -0.255695	            0.458794	           -0.204180	            0.253903	            0.084299	            2.400459	           -1.727838	           -0.232311	            0.006130	           -0.833667	           -0.431803	           -0.104599	           -0.264090
            2.508000	            0.411729	            5.948454	            0.116196	           -0.233013	            0.005581	           -0.255695	            0.462243	           -0.139416	            0.260011	            0.132478	            2.032332	           -1.729172	           -0.232311	            0.006130	           -0.833667	           -0.412771	           -0.170767	           -0.245484
            2.508500	            0.503951	            6.127754	            0.346021	           -0.233013	            0.005581	           -0.255695	            0.489775	           -0.194579	            0.207215	           -0.052969	            1.479545	           -1.824920	           -0.232311	            0.006130	           -0.833667	           -0.487971	           -0.161384	           -0.301969
            2.509000	            0.503627	            5.407478	            0.159505	           -0.233013	            0.005581	           -0.255695	            0.460784	           -0.130371	            0.320376	            0.084881	            2.216980	           -1.916207	           -0.232311	            0.006130	           -0.833667	           -0.506638	           -0.189944	           -0.264362
            2.509500	            0.870470	            4.866752	            0.156276	           -0.233013	            0.005581	           -0.255695	            0.423348	           -0.138969	            0.223301	            0.083655	            2.584440	           -1.680253	           -0.232311	            0.006130	           -0.833667	           -0.450368	           -0.161517	           -0.226584
            2.510000	            0.595151	            5.047357	            0.066020	           -0.233013	            0.005581	           -0.255695	            0.464991	           -0.176629	            0.342888	            0.034626	            3.138222	           -2.100615	           -0.232311	            0.006130	           -0.833667	           -0.657099	           -0.143156	           -0.282979
            2.510500	            0.640865	            4.506962	           -0.028125	           -0.233013	            0.005581	           -0.255695	            0.562884	           -0.194676	            0.250551	            1.144758	            7.011908	           -2.791216	           -0.232311	            0.006130	           -0.833667	           -1.390301	            0.024011	           -0.187810
            2.511000	            0.502959	            5.949258	           -0.067456	           -0.233013	            0.005581	           -0.255695	            0.413716	           -0.167039	            0.245124	            2.887280	           17.335161	           -4.022237	           -0.246676	            0.005560	           -0.688438	           -0.003331	           -0.020002	            0.004641
            2.511500	            0.503319	            5.227802	            0.021164	           -0.233013	            0.005581	           -0.255695	            0.485314	           -0.185428	            0.226095	            4.917075	           25.821795	           -6.339294	           -0.241030	            0.005621	           -0.699753	            0.014342	            0.075318	           -0.018491
            2.512000	            0.365691	            5.768572	            0.023825	           -0.233013	            0.005581	           -0.255695	            0.503854	           -0.130269	            0.276797	            7.150282	           29.889044	           -8.531416	           -0.241782	            0.005570	           -0.686264	           -0.017045	           -0.071249	            0.020337
            2.512500	            0.412331	            5.767205	            0.344702	           -0.233013	            0.005581	           -0.255695	            0.583894	           -0.139223	            0.222120	            8.487167	           35.790713	           -9.637242	           -0.237880	            0.005566	           -0.681252	           -0.076739	           -0.323612	            0.087138
            2.513000	            0.503873	            4.686219	            0.202269	           -0.233013	            0.005581	           -0.255695	            0.571834	           -0.148673	            0.282452	            8.394000	           48.679253	           -9.121947	           -0.231810	            0.005614	           -0.688634	           -0.048921	           -0.283705	            0.053163
            2.513500	            0.365790	            5.227775	            0.021506	           -0.233013	            0.005581	           -0.255695	            0.654482	           -0.185862	            0.313800	            7.724526	           65.612842	           -7.418755	           -0.229822	            0.005623	           -0.689143	           -0.029776	           -0.252922	            0.028598
            2.514000	            0.595085	            5.407889	            0.067566	           -0.233013	            0.005581	           -0.255695	            0.483068	           -0.194306	            0.154773	            6.895481	           87.705424	           -6.635668	           -0.230091	            0.005650	           -0.696929	            0.000778	            0.009897	           -0.000749
            2.514500	            0.824399	            4.867136	            0.064678	           -0.233013	            0.005581	           -0.255695	            0.464901	           -0.194607	            0.258601	            5.940166	          105.570295	           -8.167110	           -0.231169	            0.005643	           -0.696089	            0.013820	            0.245613	           -0.019001
